# xmcd
#
# Track frame offsets: 
#        150
#        12780
#        30532
#        43147
#        56450
#        68703
#        80040
#        91478
#        99976
#        108211
#        120152
#        129784
#        141483
#        157987
#        166451
#
# Disc length: 2300 seconds
#
# Revision: 0
# Processed by: cddbd v1.5.2PL0 Copyright (c) Steve Scherf et al.
# Submitted via: ExactAudioCopy v0.99pb5
#
DISCID=b608fa0f
DTITLE=Johnny Cash - Collector's Edition [Disc 1]
DYEAR=1900
DGENRE=Country
TTITLE0=I Walk the Line
TTITLE1=Orange Blossom Special
TTITLE2=Jackson
TTITLE3=Don't Take Your Guns to Town
TTITLE4=Sixteen Tons
TTITLE5=Hey Porter
TTITLE6=These Hands
TTITLE7=I Got Stripes
TTITLE8=The Wall
TTITLE9=Folsom Prison Blues
TTITLE10=If I Were a Carpenter
TTITLE11=Highwayman
TTITLE12=Will the Circle Be Unbroken
TTITLE13=Busted
TTITLE14=No Setting Sun
EXTD=
EXTT0=
EXTT1=
EXTT2=
EXTT3=
EXTT4=
EXTT5=
EXTT6=
EXTT7=
EXTT8=
EXTT9=
EXTT10=
EXTT11=
EXTT12=
EXTT13=
EXTT14=
PLAYORDER=
